# AST/ASF file generated using VICON BodyLanguage
# -----------------------------------------------
:version 1.10
:name VICON
:units
  mass 1.0
  length 0.45
  angle deg
:documentation
   .ast/.asf automatically generated from VICON data using
   VICON BodyBuilder and BodyLanguage model FoxedUp or BRILLIANT.MOD
:root
   order TX TY TZ RX RY RZ
   axis XYZ
   position 0 0 0  
   orientation 0 0 0 
:bonedata
  begin
     id 1 
     name lhipjoint
     direction 0.612567 -0.751349 0.245431 
     length 2.42285 
     axis 0 0 0  XYZ
  end
  begin
     id 2 
     name lfemur
     direction 0.34202 -0.939693 0  
     length 7.11304  
     axis 0 0 20  XYZ
    dof rx ry rz
    limits (-160.0 20.0)
           (-70.0 70.0)
           (-60.0 70.0)
  end
  begin
     id 3 
     name ltibia
     direction 0.34202 -0.939693 0   
     length 7.84529   
     axis 0 0 20   XYZ
    dof rx
    limits (-10.0 170.0)
  end
  begin
     id 4 
     name lfoot
     direction 0.0779239 -0.214094 0.9737   
     length 1.97176   
     axis -90 7.62852e-016 20   XYZ
    dof rx rz
    limits (-45.0 90.0)
           (-70.0 20.0)
  end
  begin
     id 5 
     name ltoes
     direction 1.53565e-011 -4.21709e-011 1   
     length 0.993197   
     axis -90 7.62852e-016 20   XYZ
    dof rx
    limits (-90.0 20.0)
  end
  begin
     id 6 
     name rhipjoint
     direction -0.665722 -0.709315 0.231701   
     length 2.56642  
     axis 0 0 0  XYZ 
  end
  begin
     id 7 
     name rfemur
     direction -0.34202 -0.939693 0   
     length 7.32108   
     axis 0 0 -20   XYZ
    dof rx ry rz
    limits (-160.0 20.0)
           (-70.0 70.0)
           (-70.0 60.0)
  end
  begin
     id 8 
     name rtibia
     direction -0.34202 -0.939693 0   
     length 7.81254   
     axis 0 0 -20   XYZ
    dof rx
    limits (-10.0 170.0)
 end
 begin
     id 9 
     name rfoot
     direction -0.0832806 -0.228812 0.969902   
     length 2.08278  
     axis -90 -7.62852e-016 -20   XYZ
    dof rx rz
    limits (-45.0 90.0)
           (-20.0 70.0)
  end
  begin
     id 10 
     name rtoes
     direction -1.53589e-011 -4.22086e-011 1   
     length 1.04609   
     axis -90 -7.62852e-016 -20   XYZ
    dof rx
    limits (-90.0 20.0)
  end
  begin
     id 11 
     name lowerback
     direction -0.00506013 0.988403 -0.151766   
     length 2.01978   
     axis 0 0 0   XYZ
    dof rx ry rz
    limits (-20.0 45.0)
           (-30.0 30.0)
           (-30.0 30.0)
  end
  begin
     id 12 
     name upperback
     direction -0.00836389 0.99968 0.0238859   
     length 2.01276   
     axis 0 0 0   XYZ
    dof rx ry rz
    limits (-20.0 45.0)
           (-30.0 30.0)
           (-30.0 30.0)
  end
  begin
     id 13 
     name thorax
     direction -0.00684136 0.995386 0.0957043   
     length 2.07303   
     axis 0 0 0   XYZ
    dof rx ry rz
    limits (-20.0 45.0)
           (-30.0 30.0)
           (-30.0 30.0)
  end
  begin
     id 14 
     name lowerneck
     direction -0.0161045 0.999661 0.0204485   
     length 1.91243   
     axis 0 0 0   XYZ
    dof rx ry rz
    limits (-20.0 45.0)
           (-30.0 30.0)
           (-30.0 30.0)
  end
  begin
     id 15 
     name upperneck
     direction 0.0553583 0.990946 -0.122319   
     length 1.91574   
     axis 0 0 0   XYZ
    dof rx ry rz
    limits (-20.0 45.0)
           (-30.0 30.0)
           (-30.0 30.0)
  end
  begin
     id 16
     name head
     direction 0.0180273 0.998839 -0.0446756  
     length 1.92693  
     axis 0 0 0   XYZ
    dof rx ry rz
    limits (-20.0 45.0)
           (-30.0 30.0)
           (-30.0 30.0)
  end
  begin
     id 17 
     name lclavicle
     direction 0.945646 0.319323 -0.0615358  
     length 4.0076  
     axis 0 0 0   XYZ
    dof ry rz
    limits (-20.0 10.0)
           (0.0 20.0)
  end
  begin
     id 18 
     name lhumerus
     direction 1 -4.48967e-011 -2.79996e-027   
     length 5.64147   
     axis 180 -30 -90   XYZ
    dof rx ry rz
    limits (-60.0 90.0)
           (-90.0 90.0)
           (-90.0 90.0)
  end
  begin
     id 19
     name lradius
     direction 1 -4.48976e-011 -9.5122e-027   
     length 2.86444   
     axis 180 -30 -90   XYZ
    dof rx
    limits (-10.0 170.0)
  end
  begin
     id 20
     name lwrist
     direction 1 -4.48983e-011 -1.24047e-026   
     length 1.43222   
     axis 9.05591e-015 90 90   XYZ
    dof ry
    limits (-180.0 0.0)
 end
  begin
     id 21 
     name lhand
     direction 1 -4.4892e-011 -2.48094e-026   
     length 0.722123   
     axis 1.58305e-014 90 90   XYZ
    dof rx rz
    limits (-90.0 90.0)
           (-45.0 45.0)
  end
  begin
     id 22 
     name lfingers
     direction 1 -4.48895e-011 -4.96187e-026   
     length 0.582194   
     axis 3.1661e-014 90 90   XYZ
    dof rx
    limits (0.0 90.0)
  end
  begin
     id 23
     name lthumb
     direction 0.707107 -6.34961e-011 0.707107   
     length 0.835918   
     axis -90 45 2.85299e-015   XYZ
    dof rx rz
    limits (-45.0 45.0)
           (-45.0 45.0)
  end
  begin
     id 24 
     name rclavicle
     direction -0.932635 0.324218 -0.15835   
     length 3.65819  
     axis 0 0 0   XYZ 
    dof ry rz
    limits (-10.0 20.0)
           (-20.0 0.0)
  end
  begin
     id 25 
     name rhumerus
     direction -1 -4.48965e-011 -4.02296e-027  
     length 5.44729   
     axis 180 30 90   XYZ
    dof rx ry rz
    limits (-90.0 60.0)
           (-90.0 90.0)
           (-90.0 90.0)
  end
  begin
     id 26 
     name rradius
     direction -1 -4.48957e-011 -8.81087e-027   
     length 3.08821   
     axis 180 30 90   XYZ
    dof rx
    limits (-10.0 170.0)
  end
  begin
     id 27 
     name rwrist
     direction -1 -4.49015e-011 -1.24047e-026   
     length 1.5441   
     axis 9.05591e-015 -90 -90   XYZ
    dof ry
    limits (-180.0 0.0)
  end
  begin
     id 28
     name rhand
     direction -1 -4.4891e-011 -2.48094e-026   
     length 0.821049   
     axis 1.58305e-014 -90 -90   XYZ
    dof rx rz
    limits (-90.0 90.0)
           (-45.0 45.0)
  end
  begin
     id 29
     name rfingers
     direction -1 -4.48985e-011 -4.96187e-026   
     length 0.661951   
     axis 3.1661e-014 -90 -90   XYZ
    dof rx
    limits (0.0 90.0)
  end
  begin
     id 30
     name rthumb
     direction -0.707107 -6.34906e-011 0.707107   
     length 0.950433   
     axis -90 -45 -2.85299e-015   XYZ
    dof rx rz
    limits (-45.0 45.0)
           (-45.0 45.0)
  end
:hierarchy
  begin
    root lhipjoint rhipjoint lowerback
    lhipjoint lfemur
    lfemur ltibia
    ltibia lfoot
    lfoot ltoes
    rhipjoint rfemur
    rfemur rtibia
    rtibia rfoot
    rfoot rtoes
    lowerback upperback
    upperback thorax
    thorax lowerneck lclavicle rclavicle
    lowerneck upperneck
    upperneck head
    lclavicle lhumerus
    lhumerus lradius
    lradius lwrist
    lwrist lhand lthumb
    lhand lfingers
    rclavicle rhumerus
    rhumerus rradius
    rradius rwrist
    rwrist rhand rthumb
    rhand rfingers
  end

#!OML:ASF F:\VICON\USERDATA\INSTALL\rory3\rory3.ASF
:FULLY-SPECIFIED
:DEGREES
1866
root 3.62266 17.6086 0.226643 11.5831 92.0475 12.6506
lowerback 4.91377 0.0375388 5.29748
upperback -2.27877 0.518809 1.37964
thorax -5.10047 0.116591 -1.58651
lowerneck -3.49632 -3.54783 -2.13477
upperneck -2.17917 -4.56912 5.51544
head 0.10204 -2.23413 2.02442
rclavicle -5.46658e-016 5.56597e-015
rhumerus -35.8008 -0.304161 -81.5843
rradius 64.2561
rwrist -9.36398
rhand -14.4617 22.6473
rfingers 7.12502
rthumb 11.6839 -7.00695
lclavicle -5.46658e-016 5.56597e-015
lhumerus -62.4889 -18.9354 104.813
lradius 39.766
lwrist 53.9377
lhand -13.1708 9.43769
lfingers 7.12502
lthumb 12.9286 39.0172
rfemur 1.61983 0.277073 19.6522
rtibia 16.8725
rfoot -21.4259 -7.54899
rtoes -6.07077
lfemur -1.37486 1.21233 -15.435
ltibia 15.9951
lfoot -13.2002 -3.68555
ltoes -3.89084
1867
root 3.63453 17.6071 0.227055 9.30415 91.8374 10.4271
lowerback 4.83975 0.0480305 5.10403
upperback -2.32431 0.50829 1.26535
thorax -5.10605 0.113987 -1.59575
lowerneck -3.54375 -3.5053 -2.09221
upperneck -2.03172 -4.52115 5.46419
head 0.151594 -2.20887 1.99871
rclavicle -1.68967e-015 1.35174e-014
rhumerus -35.4034 0.815671 -82.1275
rradius 67.2001
rwrist -9.79572
rhand -14.5828 22.6597
rfingers 7.12502
rthumb 11.5671 -7.00105
lclavicle -1.68967e-015 1.35174e-014
lhumerus -63.8599 -19.8798 105.867
lradius 41.0596
lwrist 54.036
lhand -12.94 9.33948
lfingers 7.12502
lthumb 13.151 38.9048
rfemur 1.65147 0.312263 19.5049
rtibia 16.9715
rfoot -21.359 -7.44673
rtoes -6.6812
lfemur -1.18601 1.20927 -15.5836
ltibia 15.9277
lfoot -13.3104 -3.45461
ltoes -4.19359
1868
root 3.64535 17.6062 0.225995 6.58052 91.5965 7.76032
lowerback 4.78762 0.0321379 4.8716
upperback -2.35542 0.46372 1.19632
thorax -5.11161 0.0972053 -1.53316
lowerneck -3.67187 -3.42508 -2.07912
upperneck -1.86349 -4.42251 5.35638
head 0.218507 -2.15723 1.95935
rclavicle 6.4605e-016 3.97569e-015
rhumerus -34.7877 2.14951 -82.5634
rradius 70.1878
rwrist -10.6426
rhand -14.5802 22.671
rfingers 7.12502
rthumb 11.5696 -6.98968
lclavicle 6.4605e-016 3.97569e-015
lhumerus -65.0801 -20.622 106.817
lradius 42.1919
lwrist 53.2838
lhand -12.2943 9.29111
lfingers 7.12502
lthumb 13.7734 38.8152
rfemur 1.68922 0.327499 19.3428
rtibia 17.0344
rfoot -21.3497 -7.23411
rtoes -6.21346
lfemur -1.01473 1.25003 -15.7315
ltibia 15.9128
lfoot -13.4274 -3.25654
ltoes -4.47201
1869
root 3.64951 17.6045 0.228057 12.5187 91.4116 13.6897
lowerback 4.73788 0.00920306 4.85385
upperback -2.42004 0.431022 1.18348
thorax -5.15306 0.0797182 -1.53334
lowerneck -3.83346 -3.36194 -2.12795
upperneck -1.6822 -4.34352 5.3444
head 0.300203 -2.1138 1.96126
rclavicle 8.44835e-016 -2.06736e-014
rhumerus -34.0197 3.49758 -82.9245
rradius 73.2303
rwrist -11.7201
rhand -14.567 22.6284
rfingers 7.12502
rthumb 11.5824 -7.03151
lclavicle 8.44835e-016 -2.06736e-014
lhumerus -66.3438 -21.3375 107.777
lradius 43.4391
lwrist 52.8007
lhand -12.0879 9.15255
lfingers 7.12502
lthumb 13.9723 38.663
rfemur 1.63748 0.388883 19.4737
rtibia 17.0949
rfoot -21.3773 -7.03646
rtoes -5.66292
lfemur -0.962808 1.33613 -15.5868
ltibia 15.9178
lfoot -13.4313 -3.19258
ltoes -3.87271
1870
root 3.65606 17.6023 0.230371 21.1519 91.2908 22.3454
lowerback 4.61151 -0.00167983 4.93587
upperback -2.43262 0.410746 1.1148
thorax -5.09486 0.0665019 -1.6482
lowerneck -3.98318 -3.34627 -2.0897
upperneck -1.56525 -4.32727 5.35712
head 0.360829 -2.10222 1.95555
rclavicle -1.73937e-015 -1.90833e-014
rhumerus -33.0646 4.67108 -83.2493
rradius 76.2911
rwrist -12.6897
rhand -14.6695 22.6137
rfingers 7.12502
rthumb 11.4835 -7.0518
lclavicle -1.73937e-015 -1.90833e-014
lhumerus -67.5638 -22.0689 108.557
lradius 44.8895
lwrist 52.866
lhand -12.2071 9.34502
lfingers 7.12502
lthumb 13.8575 38.8634
rfemur 1.63196 0.423035 19.6551
rtibia 17.1471
rfoot -21.3252 -6.94504
rtoes -5.908
lfemur -0.88532 1.39959 -15.3942
ltibia 15.943
lfoot -13.4699 -3.12811
ltoes -3.57159
